<svg width="10.67" height="14" viewBox="0 0 12 15" fill="none" xmlns="http://www.w3.org/2000/svg">
<path d="M11.3332 5.33334H9.33317V4.14C9.33317 2.4 8.05984 0.846668 6.3265 0.680002C4.33984 0.493335 2.6665 2.05333 2.6665 4V5.33334H0.666504V14.6667H11.3332V5.33334ZM5.99984 11.3333C5.2665 11.3333 4.6665 10.7333 4.6665 10C4.6665 9.26667 5.2665 8.66667 5.99984 8.66667C6.73317 8.66667 7.33317 9.26667 7.33317 10C7.33317 10.7333 6.73317 11.3333 5.99984 11.3333ZM3.99984 5.33334V4C3.99984 2.89334 4.89317 2 5.99984 2C7.1065 2 7.99984 2.89334 7.99984 4V5.33334H3.99984Z" fill="#98989E"/>
</svg>
